<svg id="Layer_1" data-name="Layer 1" xmlns="http://www.w3.org/2000/svg" viewBox="0 0 2160 1080"><defs><style>.cls-1{fill:#0034f0;}</style></defs><path class="cls-1" d="M829.66,555.77v39.39a47.48,47.48,0,0,1-47.48,47.48h-162a8.4,8.4,0,0,1-8.4-8.4V590.15a8.4,8.4,0,0,1,8.4-8.4H762.49a6.28,6.28,0,0,0,6.27-6.28h0a6.28,6.28,0,0,0-6.27-6.28H620.22a8.4,8.4,0,0,1-8.4-8.39V516.7a8.4,8.4,0,0,1,8.4-8.4h162A47.47,47.47,0,0,1,829.66,555.77Z"/><path class="cls-1" d="M771.9,498.25H616.82a5,5,0,0,1-5-5V442.36a5,5,0,0,1,5-5H735.65a36.25,36.25,0,0,1,36.25,36.26Z"/><path d="M982.23,555.27c0,22.27-18.14,36.82-40.59,36.82H897.23a8.4,8.4,0,0,1-8.4-8.4V474.76a8.4,8.4,0,0,1,8.4-8.4h40.82c21.91,0,39.69,14.19,39.69,35.92a31.47,31.47,0,0,1-11,24.61A32.48,32.48,0,0,1,982.23,555.27Zm-64.66-62v22.27h20.48c6.46,0,11-4.67,11-11.13s-4.31-11.14-11-11.14Zm35.92,59.81c0-7-4.67-12-11.85-12H917.57v24.07h24.07C948.82,565.15,953.49,560.12,953.49,553.11Z"/><path d="M1089.64,510.68v73a8.4,8.4,0,0,1-8.4,8.4h-10.15a8.4,8.4,0,0,1-8.4-8.4v0c-5.92,6.82-14.72,11-26.76,11C1012.4,594.6,993,574,993,547.19s19.4-47.42,42.93-47.42c12,0,20.84,4.13,26.76,11v0a8.4,8.4,0,0,1,8.4-8.4h10.15A8.4,8.4,0,0,1,1089.64,510.68Zm-27,36.51c0-13.48-9-21.92-21.37-21.92S1020,533.71,1020,547.19s9,21.91,21.37,21.91S1062.69,560.66,1062.69,547.19Z"/><path d="M1163.27,510.34v12.1a8.3,8.3,0,0,1-7.4,8.34c-9.65.9-19.54,6.65-19.54,20.72v32.19a8.4,8.4,0,0,1-8.39,8.4h-10.15a8.4,8.4,0,0,1-8.4-8.4v-73a8.4,8.4,0,0,1,8.4-8.4h10.15a8.4,8.4,0,0,1,8.39,8.4v7.59c2.42-8.1,8.66-13.35,15.94-15.92A8.35,8.35,0,0,1,1163.27,510.34Z"/><path d="M1212.67,528.15v31.79c0,5.78,3.72,7.64,10.56,7.9a8.35,8.35,0,0,1,7.94,8.39v8.06a8.38,8.38,0,0,1-8,8.39c-28.8,1.21-37.46-9.61-37.46-32.74V528.15h-6a8.4,8.4,0,0,1-8.39-8.4v-9.07a8.4,8.4,0,0,1,8.39-8.4h6V485.53a8.39,8.39,0,0,1,8.39-8.39h10.15a8.4,8.4,0,0,1,8.4,8.39v16.75h10.1a8.4,8.4,0,0,1,8.4,8.4v9.07a8.4,8.4,0,0,1-8.4,8.4Z"/><path d="M1290.26,570.53a25.27,25.27,0,0,0,13.54-3.74,8.16,8.16,0,0,1,8.49-.32l7.61,4.37a8.41,8.41,0,0,1,1,13.86c-8.16,6.55-18.6,9.9-31,9.9-30.72,0-49.75-20.65-49.75-47.41s19.39-47.42,47.77-47.42c26.23,0,45.62,20.29,45.62,47.42,0,1,0,1.93-.07,2.87a8.37,8.37,0,0,1-8.39,7.9H1268.7C1272.12,567.3,1280.38,570.53,1290.26,570.53Zm16.52-32.68c-2.87-10.42-11-14.19-19-14.19-10.23,0-17.06,5-19.57,14.19Z"/><path d="M1402.69,510.34v12.1a8.3,8.3,0,0,1-7.4,8.34c-9.65.9-19.54,6.65-19.54,20.72v32.19a8.4,8.4,0,0,1-8.4,8.4h-10.14a8.4,8.4,0,0,1-8.4-8.4v-73a8.4,8.4,0,0,1,8.4-8.4h10.14a8.4,8.4,0,0,1,8.4,8.4v7.59c2.42-8.1,8.66-13.35,15.93-15.92A8.36,8.36,0,0,1,1402.69,510.34Z"/><path d="M1412.57,478.21a16.17,16.17,0,1,1,16.17,16.17A16.32,16.32,0,0,1,1412.57,478.21Zm11.09,24.07h10.15a8.4,8.4,0,0,1,8.4,8.4v73a8.4,8.4,0,0,1-8.4,8.4h-10.15a8.4,8.4,0,0,1-8.4-8.4v-73A8.4,8.4,0,0,1,1423.66,502.28Z"/><path d="M1548.18,537v46.74a8.4,8.4,0,0,1-8.4,8.4h-10.15a8.4,8.4,0,0,1-8.39-8.4V540.9c0-11.14-7-16.35-15.63-16.35-9.88,0-16.7,5.75-16.7,18.5v40.64a8.4,8.4,0,0,1-8.4,8.4h-10.15a8.4,8.4,0,0,1-8.4-8.4v-73a8.4,8.4,0,0,1,8.4-8.4h10.15a8.4,8.4,0,0,1,8.4,8.4v0c4.85-6.64,13.82-11,25.68-11C1532.73,499.77,1548.18,512.7,1548.18,537Z"/></svg>